<svg aria-hidden="true" style="position: absolute; width: 0; height: 0; overflow: hidden;" version="1.1" xmlns="http://www.w3.org/2000/svg" xmlns:xlink="http://www.w3.org/1999/xlink">
<defs>
<symbol id="icon-paw" viewBox="0 0 26 28">
<path d="M12.187 7.375c0 1.75-0.906 3.828-2.922 3.828-2.531 0-4.062-3.187-4.062-5.375 0-1.75 0.906-3.828 2.922-3.828 2.547 0 4.062 3.187 4.062 5.375zM6.844 14.922c0 1.516-0.797 3.094-2.516 3.094-2.5 0-4.328-3.063-4.328-5.328 0-1.516 0.812-3.109 2.516-3.109 2.5 0 4.328 3.078 4.328 5.344zM13 14.5c3.828 0 9 5.516 9 9.203 0 1.984-1.625 2.297-3.219 2.297-2.094 0-3.781-1.406-5.781-1.406-2.094 0-3.875 1.391-6.141 1.391-1.516 0-2.859-0.516-2.859-2.281 0-3.703 5.172-9.203 9-9.203zM16.734 11.203c-2.016 0-2.922-2.078-2.922-3.828 0-2.188 1.516-5.375 4.062-5.375 2.016 0 2.922 2.078 2.922 3.828 0 2.188-1.531 5.375-4.062 5.375zM23.484 9.578c1.703 0 2.516 1.594 2.516 3.109 0 2.266-1.828 5.328-4.328 5.328-1.719 0-2.516-1.578-2.516-3.094 0-2.266 1.828-5.344 4.328-5.344z"></path>
</symbol>
<symbol id="icon-bookmark" viewBox="0 0 20 20">
<path d="M14 2v17l-4-4-4 4v-17c0-0.553 0.585-1.020 1-1h6c0.689-0.020 1 0.447 1 1z"></path>
</symbol>
<symbol id="icon-chevron-thin-right" viewBox="0 0 20 20">
<path d="M13.25 10l-7.141-7.42c-0.268-0.27-0.268-0.707 0-0.979 0.268-0.27 0.701-0.27 0.969 0l7.83 7.908c0.268 0.271 0.268 0.709 0 0.979l-7.83 7.908c-0.268 0.271-0.701 0.27-0.969 0s-0.268-0.707 0-0.979l7.141-7.417z"></path>
</symbol>
<symbol id="icon-address" viewBox="0 0 20 20">
<path d="M19.799 5.165l-2.375-1.83c-0.135-0.093-0.324-0.176-0.521-0.237-0.198-0.061-0.403-0.098-0.567-0.098h-6.836l0.801 5h6.035c0.164 0 0.369-0.037 0.566-0.098s0.387-0.145 0.521-0.236l2.375-1.832c0.135-0.091 0.202-0.212 0.202-0.334s-0.067-0.243-0.201-0.335zM8.5 1h-1c-0.276 0-0.5 0.224-0.5 0.5v3.5h-3.336c-0.166 0-0.37 0.037-0.567 0.099-0.198 0.060-0.387 0.143-0.521 0.236l-2.375 1.83c-0.135 0.091-0.201 0.213-0.201 0.335s0.066 0.242 0.201 0.335l2.375 1.832c0.134 0.091 0.323 0.175 0.521 0.235s0.401 0.098 0.567 0.098h3.336v8.5c0 0.276 0.224 0.5 0.5 0.5h1c0.276 0 0.5-0.224 0.5-0.5v-17c0-0.276-0.224-0.5-0.5-0.5z"></path>
</symbol>
<symbol id="icon-chat" viewBox="0 0 20 20">
<path d="M5.8 12.2v-6.2h-3.8c-1.1 0-2 0.9-2 2v6c0 1.1 0.9 2 2 2h1v3l3-3h5c1.1 0 2-0.9 2-2v-1.82c-0.064 0.014-0.132 0.021-0.2 0.021l-7-0.001zM18 1h-9c-1.1 0-2 0.9-2 2v8h7l3 3v-3h1c1.1 0 2-0.899 2-2v-6c0-1.1-0.9-2-2-2z"></path>
</symbol>
<symbol id="icon-home" viewBox="0 0 20 20">
<path d="M18.672 11h-1.672v6c0 0.445-0.194 1-1 1h-4v-6h-4v6h-4c-0.806 0-1-0.555-1-1v-6h-1.672c-0.598 0-0.47-0.324-0.060-0.748l8.024-8.032c0.195-0.202 0.451-0.302 0.708-0.312 0.257 0.010 0.513 0.109 0.708 0.312l8.023 8.031c0.411 0.425 0.539 0.749-0.059 0.749z"></path>
</symbol>
<symbol id="icon-location-pin" viewBox="0 0 20 20">
<path d="M10 2.009c-2.762 0-5 2.229-5 4.99 0 4.774 5 11 5 11s5-6.227 5-11c0-2.76-2.238-4.99-5-4.99zM10 9.76c-1.492 0-2.7-1.209-2.7-2.7s1.208-2.7 2.7-2.7c1.49 0 2.699 1.209 2.699 2.7s-1.209 2.7-2.699 2.7z"></path>
</symbol>
<symbol id="icon-magnifying-glass" viewBox="0 0 20 20">
<path d="M17.545 15.467l-3.779-3.779c0.57-0.935 0.898-2.035 0.898-3.21 0-3.417-2.961-6.377-6.378-6.377s-6.186 2.769-6.186 6.186c0 3.416 2.961 6.377 6.377 6.377 1.137 0 2.2-0.309 3.115-0.844l3.799 3.801c0.372 0.371 0.975 0.371 1.346 0l0.943-0.943c0.371-0.371 0.236-0.84-0.135-1.211zM4.004 8.287c0-2.366 1.917-4.283 4.282-4.283s4.474 2.107 4.474 4.474c0 2.365-1.918 4.283-4.283 4.283s-4.473-2.109-4.473-4.474z"></path>
</symbol>
<symbol id="icon-map" viewBox="0 0 20 20">
<path d="M19.447 3.718l-6-3c-0.281-0.141-0.613-0.141-0.895 0l-5.63 2.815-5.606-1.869c-0.306-0.102-0.64-0.051-0.901 0.138s-0.415 0.49-0.415 0.811v13.001c0 0.379 0.214 0.725 0.553 0.894l6 3c0.141 0.070 0.294 0.106 0.447 0.106s0.307-0.035 0.447-0.106l5.63-2.814 5.606 1.869c0.305 0.1 0.64 0.049 0.901-0.139s0.415-0.49 0.415-0.81v-13.002c0.001-0.379-0.213-0.725-0.552-0.894zM8 5.231l4-2v11.763l-4 2v-11.763zM2 4l4 1.333v11.661l-4-2v-10.994zM18 16.227l-4-1.334v-11.662l4 2v10.996z"></path>
</symbol>
<symbol id="icon-star" viewBox="0 0 20 20">
<path d="M10 1.3l2.388 6.722h6.412l-5.232 3.948 1.871 6.928-5.439-4.154-5.438 4.154 1.87-6.928-5.233-3.948h6.412l2.389-6.722z"></path>
</symbol>
<symbol id="icon-music" viewBox="0 0 32 32">
<path d="M30 0h2v23c0 2.761-3.134 5-7 5s-7-2.239-7-5c0-2.761 3.134-5 7-5 1.959 0 3.729 0.575 5 1.501v-11.501l-16 3.556v15.444c0 2.761-3.134 5-7 5s-7-2.239-7-5c0-2.761 3.134-5 7-5 1.959 0 3.729 0.575 5 1.501v-19.501l18-4z"></path>
</symbol>
</defs>
</svg>
